# xmcd
#
# Track frame offsets: 
#        182
#        26565
#        46515
#        63182
#        78482
#        97680
#        110432
#        123340
#        140705
#        159760
#        177797
#        196097
#        222432
#        240077
#        259837
#        277167
#
# Disc length: 3884 seconds
#
# Revision: 12
# Processed by: cddbd v1.5.2PL0 Copyright (c) Steve Scherf et al.
# Submitted via: ExactAudioCopy v1.3
#
DISCID=cb0f2a10
DTITLE=Boyz II Men - Cooleyhighharmony
DYEAR=1992
DGENRE=Hip-Hop
TTITLE0=End Of The Road (LP Version)
TTITLE1=Please Don't Go
TTITLE2=Lonely Heart
TTITLE3=This Is My Heart
TTITLE4=Uhh Ahh (Sequel Version)
TTITLE5=It's So Hard To Say Goodbye To Yesterday (Original Version)
TTITLE6=In The Still Of The Nite (I'll Remember)
TTITLE7=Motownphilly (Remix Radio Edit)
TTITLE8=Under Pressure
TTITLE9=Sympin (Remix Radio Edit)
TTITLE10=Little Things
TTITLE11=Your Love
TTITLE12=Motownphilly (Original Version)
TTITLE13=Sympin (Original Version)
TTITLE14=Uhh Ahh (Original Version)
TTITLE15=It's So Hard To Say Goodbye To Yesterday (Radio Version)
EXTD=
EXTT0=
EXTT1=
EXTT2=
EXTT3=
EXTT4=
EXTT5=
EXTT6=
EXTT7=
EXTT8=
EXTT9=
EXTT10=
EXTT11=
EXTT12=
EXTT13=
EXTT14=
EXTT15=
PLAYORDER=
